# Blender 4.0.2
# www.blender.org
mtllib smg.mtl
o Cube
v 0.040000 0.500000 -0.450000
v -0.040000 0.500000 0.440000
v -0.050000 0.000000 -0.200000
v -0.040000 0.500000 -0.100000
v -0.040000 0.500000 -0.450000
v 0.040000 0.500000 0.440000
v 0.050000 0.000000 -0.200000
v 0.040000 0.500000 -0.100000
v -0.050000 0.300000 0.460000
v -0.050000 0.300000 -0.100000
v 0.050000 0.300000 -0.100000
v 0.050000 0.300000 0.460000
v -0.050000 0.000000 0.160000
v -0.040000 0.500000 0.260000
v 0.050000 0.000000 0.160000
v 0.040000 0.500000 0.260000
v 0.050000 0.300000 0.260000
v -0.050000 0.300000 0.260000
v -0.050000 0.400000 -0.450000
v 0.050000 0.400000 -0.450000
v -0.040000 0.500000 -0.250000
v -0.050000 0.400000 -0.250000
v 0.050000 0.400000 -0.250000
v 0.040000 0.500000 -0.250000
v 0.050000 0.130000 -0.520000
v 0.050000 0.100000 -0.530000
v -0.050000 0.100000 -0.530000
v -0.050000 0.130000 -0.520000
v -0.050000 0.030000 -0.190000
v 0.050000 0.030000 -0.190000
v -0.050000 0.030000 0.170000
v 0.050000 0.030000 0.170000
v -0.050000 0.075000 -0.345000
v -0.050000 0.045000 -0.355000
v 0.050000 0.045000 -0.355000
v 0.050000 0.075000 -0.345000
v -0.050000 0.400000 0.460000
v -0.050000 0.400000 -0.100000
v 0.050000 0.400000 -0.100000
v 0.050000 0.400000 0.460000
v 0.050000 0.400000 0.260000
v -0.050000 0.400000 0.260000
v 0.040000 0.330000 -0.270000
v -0.030000 0.330000 -0.270000
v -0.030000 0.360000 -0.440000
v 0.040000 0.360000 -0.440000
v 0.040000 0.140000 -0.340000
v -0.030000 0.140000 -0.340000
v -0.030000 0.180000 -0.490000
v 0.040000 0.180000 -0.490000
v -0.050000 0.120000 -0.160000
v 0.050000 0.120000 -0.160000
v -0.050000 0.120000 0.200000
v 0.050000 0.120000 0.200000
v 0.050000 0.015000 -0.260000
v 0.050000 0.045000 -0.250000
v -0.050000 0.015000 -0.260000
v -0.050000 0.045000 -0.250000
v 0.040000 0.310000 -0.280000
v -0.030000 0.310000 -0.280000
v -0.030000 0.350000 -0.440000
v 0.040000 0.350000 -0.440000
v -0.050000 0.290000 -0.100000
v 0.050000 0.290000 -0.100000
v -0.050000 0.290000 0.250000
v 0.050000 0.290000 0.250000
v -0.050000 0.290000 -0.230000
v 0.050000 0.290000 -0.230000
v -0.050000 0.300000 -0.230000
v 0.050000 0.300000 -0.230000
v 0.040000 0.360000 -0.270000
v -0.030000 0.360000 -0.270000
v -0.030000 0.380000 -0.440000
v 0.040000 0.380000 -0.440000
v -0.040000 0.500000 0.080000
v 0.050000 0.000000 -0.020000
v -0.050000 0.300000 0.080000
v -0.050000 0.000000 -0.020000
v 0.040000 0.500000 0.080000
v 0.050000 0.300000 0.080000
v 0.050000 0.030000 -0.010000
v -0.050000 0.030000 -0.010000
v 0.050000 0.400000 0.080000
v -0.050000 0.400000 0.080000
v 0.050000 0.120000 0.020000
v -0.050000 0.120000 0.020000
v 0.050000 0.290000 0.070000
v -0.050000 0.290000 0.070000
v -0.050000 0.400000 -0.550000
v 0.050000 0.400000 -0.550000
v -0.040000 0.470000 -0.550000
v 0.040000 0.470000 -0.550000
vn -0.9950 0.0995 -0.0000
vn 0.9950 0.0995 -0.0000
vn -0.0000 0.1961 0.9806
vn -0.9930 0.1168 -0.0175
vn -0.0000 1.0000 -0.0000
vn -0.0000 -0.3162 0.9487
vn -0.0000 -1.0000 -0.0000
vn -1.0000 -0.0000 -0.0000
vn 1.0000 -0.0000 -0.0000
vn -0.0000 -0.0000 1.0000
vn -0.0000 -0.9540 -0.2998
vn -0.0000 0.3162 -0.9487
vn -0.0000 -0.0767 0.9971
vn -0.9488 0.3031 0.0886
vn -0.0000 -0.9536 -0.3011
vn -0.0000 0.9536 0.3011
vn -0.0000 0.5145 -0.8575
vn 0.9864 0.1575 0.0461
vn -0.0000 -0.0000 -1.0000
vn -0.0000 0.2822 -0.9594
vn -0.0000 -0.3328 0.9430
vn -0.0000 -0.2822 0.9594
vn -0.0000 -0.9701 -0.2425
vn -0.0000 0.7682 -0.6402
vn -0.0000 -0.7071 0.7071
vn -0.0000 0.3328 -0.9430
vn -0.0000 0.8000 0.6000
vn 0.9810 0.0613 -0.1839
vn -0.0000 -0.9285 -0.3714
vn -0.9300 0.1162 -0.3487
vn -0.0000 -0.4472 0.8944
vn -0.8340 -0.5510 -0.0298
vn -0.0000 -0.4472 -0.8944
vn 0.9494 -0.3136 -0.0170
vn 0.9930 0.1168 -0.0175
vn -0.0000 0.9578 -0.2873
vt 0.562500 0.187500
vt 0.625000 0.187500
vt 0.625000 0.250000
vt 0.562500 0.250000
vt 0.500000 0.250000
vt 0.562500 0.625000
vt 0.625000 0.625000
vt 0.625000 0.750000
vt 0.562500 0.750000
vt 0.625000 1.000000
vt 0.562500 1.000000
vt 0.875000 0.625000
vt 0.875000 0.750000
vt 0.387500 0.125000
vt 0.375000 0.125000
vt 0.375000 0.625000
vt 0.387500 0.625000
vt 0.500000 0.000000
vt 0.500000 0.125000
vt 0.500000 0.625000
vt 0.500000 0.750000
vt 0.489298 0.250000
vt 0.494375 0.250000
vt 0.497188 0.250000
vt 0.494375 0.187500
vt 0.500000 0.187500
vt 0.375000 0.250000
vt 0.387500 0.250000
vt 0.494375 0.562500
vt 0.500000 0.562500
vt 0.494375 0.625000
vt 0.625000 0.562500
vt 0.875000 0.562500
vt 0.125000 0.562500
vt 0.375000 0.562500
vt 0.125000 0.625000
vt 0.562500 0.562500
vt 0.562500 0.000000
vt 0.625000 0.000000
vt 0.625000 0.125000
vt 0.562500 0.125000
vt 0.875000 0.500000
vt 0.625000 0.500000
vt 0.500000 0.500000
vt 0.500000 1.000000
vt 0.375000 0.500000
vt 0.125000 0.500000
vt 0.387500 0.500000
vt 0.392844 0.500000
vt 0.392844 0.250000
vt 0.387500 0.562500
vt 0.375000 0.187500
vt 0.387500 0.187500
vt 0.443750 0.125000
vt 0.443750 0.625000
vt 0.387500 0.250000
vt 0.562500 0.500000
vt 0.497187 0.500000
vt 0.494375 0.500000
vt 0.494375 0.500000
vt 0.497188 0.500000
vt 0.494375 0.250000
vt 0.497187 0.250000
vt 0.484222 0.500000
vt 0.484222 0.500000
vt 0.484222 0.250000
vt 0.484222 0.250000
vt 0.494375 0.125000
vt 0.443750 0.562500
vt 0.443750 0.187500
vt 0.443750 0.250000
vt 0.443750 0.500000
vt 0.489298 0.500000
s 0
f 84/1/1 75/2/1 4/3/1 38/4/1
f 22/5/1 21/3/1 5/3/1 19/5/1
f 41/6/2 16/7/2 6/8/2 40/9/2
f 40/9/3 6/8/3 2/10/3 37/11/3
f 19/5/4 5/3/4 91/3/4 89/5/4
f 16/7/5 14/12/5 2/13/5 6/8/5
f 31/14/6 13/15/6 15/16/6 32/17/6
f 9/18/7 18/19/7 17/20/7 12/21/7
f 67/22/8 63/23/8 10/5/8 69/24/8
f 88/25/8 77/26/8 10/5/8 63/23/8
f 34/27/8 33/28/8 28/28/8 27/27/8
f 87/29/9 80/30/9 17/20/9 66/31/9
f 79/32/5 75/33/5 14/12/5 16/7/5
f 78/34/7 76/35/7 15/16/7 13/36/7
f 83/37/2 79/32/2 16/7/2 41/6/2
f 37/38/1 2/39/1 14/40/1 42/41/1
f 21/42/5 24/43/5 1/43/5 5/42/5
f 24/43/2 23/44/2 20/44/2 1/43/2
f 80/30/9 83/37/9 41/6/9 17/20/9
f 9/18/8 37/38/8 42/41/8 18/19/8
f 12/21/10 40/9/10 37/11/10 9/45/10
f 17/20/9 41/6/9 40/9/9 12/21/9
f 35/46/11 34/47/11 27/47/11 26/46/11
f 27/27/12 28/28/12 25/48/12 26/46/12
f 47/49/13 48/50/13 33/28/13 36/48/13
f 49/50/14 28/28/14 33/28/14 48/50/14
f 76/35/9 81/51/9 32/17/9 15/16/9
f 78/52/8 82/53/8 29/28/8 3/27/8
f 56/48/9 55/46/9 35/46/9 36/48/9
f 53/54/6 31/14/6 32/17/6 54/55/6
f 36/48/9 35/46/9 26/46/9 25/48/9
f 55/46/15 57/47/15 34/47/15 35/46/15
f 57/27/8 58/56/8 33/28/8 34/27/8
f 58/56/16 56/48/16 36/48/16 33/28/16
f 50/49/17 25/48/17 28/28/17 49/50/17
f 47/49/18 36/48/18 25/48/18 50/49/18
f 77/26/8 84/1/8 38/4/8 10/5/8
f 8/43/2 39/57/2 23/44/2 24/43/2
f 10/5/19 38/4/19 39/57/19 11/44/19
f 23/44/7 39/57/7 38/4/7 22/5/7
f 38/4/1 4/3/1 21/3/1 22/5/1
f 4/3/5 8/43/5 24/43/5 21/3/5
f 71/58/9 43/59/9 46/60/9 74/61/9
f 74/61/19 46/60/19 45/62/19 73/24/19
f 73/24/8 45/62/8 44/23/8 72/63/8
f 71/58/10 72/63/10 44/23/10 43/59/10
f 59/64/9 47/49/9 50/49/9 62/65/9
f 62/65/20 50/49/20 49/50/20 61/66/20
f 61/66/8 49/50/8 48/50/8 60/67/8
f 59/64/21 60/67/21 48/50/21 47/49/21
f 65/68/22 53/54/22 54/55/22 66/31/22
f 81/51/9 85/69/9 54/55/9 32/17/9
f 82/53/8 86/70/8 51/71/8 29/28/8
f 30/48/9 56/48/9 52/72/9
f 29/28/8 51/71/8 58/56/8
f 3/27/8 29/28/8 58/56/8 57/27/8
f 7/46/23 3/47/23 57/47/23 55/46/23
f 30/48/9 7/46/9 55/46/9 56/48/9
f 58/56/24 51/71/24 52/72/24 56/48/24
f 68/73/7 64/59/7 63/23/7 67/22/7
f 45/62/8 61/66/8 60/67/8 44/23/8
f 46/60/19 62/65/19 61/66/19 45/62/19
f 43/59/9 59/64/9 62/65/9 46/60/9
f 18/19/25 65/68/25 66/31/25 17/20/25
f 85/69/9 87/29/9 66/31/9 54/55/9
f 86/70/8 88/25/8 63/23/8 51/71/8
f 51/71/26 63/23/26 64/59/26 52/72/26
f 68/73/9 70/58/9 11/44/9 64/59/9
f 70/58/27 43/59/27 44/23/27 69/24/27
f 11/44/5 70/58/5 69/24/5 10/5/5
f 59/64/28 43/59/28 70/58/28 68/73/28
f 59/64/29 68/73/29 67/22/29 60/67/29
f 60/67/30 67/22/30 69/24/30 44/23/30
f 23/44/31 22/5/31 72/63/31 71/58/31
f 19/5/32 73/24/32 72/63/32 22/5/32
f 20/44/33 74/61/33 73/24/33 19/5/33
f 23/44/34 71/58/34 74/61/34 20/44/34
f 53/54/8 65/68/8 88/25/8 86/70/8
f 52/72/9 64/59/9 87/29/9 85/69/9
f 31/14/8 53/54/8 86/70/8 82/53/8
f 30/48/9 52/72/9 85/69/9 81/51/9
f 18/19/8 42/41/8 84/1/8 77/26/8
f 13/15/8 31/14/8 82/53/8 78/52/8
f 7/46/9 30/48/9 81/51/9 76/35/9
f 11/44/9 39/57/9 83/37/9 80/30/9
f 39/57/2 8/43/2 79/32/2 83/37/2
f 3/47/7 7/46/7 76/35/7 78/34/7
f 8/43/5 4/42/5 75/33/5 79/32/5
f 64/59/9 11/44/9 80/30/9 87/29/9
f 65/68/8 18/19/8 77/26/8 88/25/8
f 42/41/1 14/40/1 75/2/1 84/1/1
f 89/5/19 91/3/19 92/43/19 90/44/19
f 1/43/35 20/44/35 90/44/35 92/43/35
f 20/44/7 19/5/7 89/5/7 90/44/7
f 5/42/36 1/43/36 92/43/36 91/42/36
o Cube.001
v -0.040000 0.320000 1.160000
v -0.020000 0.420000 1.160000
v -0.040000 0.320000 0.460000
v -0.020000 0.420000 0.460000
v 0.040000 0.320000 1.160000
v 0.020000 0.420000 1.160000
v 0.040000 0.320000 0.460000
v 0.020000 0.420000 0.460000
v -0.060000 0.350000 1.160000
v -0.060000 0.350000 0.460000
v 0.060000 0.350000 0.460000
v 0.060000 0.350000 1.160000
vn -0.8682 0.4961 -0.0000
vn -0.0000 -0.0000 -1.0000
vn 0.8682 0.4961 -0.0000
vn -0.0000 -0.0000 1.0000
vn -0.0000 -1.0000 -0.0000
vn -0.0000 1.0000 -0.0000
vn 0.8321 -0.5547 -0.0000
vn -0.8321 -0.5547 -0.0000
vt 0.500000 0.000000
vt 0.625000 0.000000
vt 0.625000 0.250000
vt 0.500000 0.250000
vt 0.625000 0.500000
vt 0.500000 0.500000
vt 0.625000 0.750000
vt 0.500000 0.750000
vt 0.625000 1.000000
vt 0.500000 1.000000
vt 0.125000 0.500000
vt 0.375000 0.500000
vt 0.375000 0.750000
vt 0.125000 0.750000
vt 0.875000 0.500000
vt 0.875000 0.750000
vt 0.375000 1.000000
vt 0.375000 0.250000
vt 0.375000 0.000000
s 0
f 101/74/37 94/75/37 96/76/37 102/77/37
f 102/77/38 96/76/38 100/78/38 103/79/38
f 103/79/39 100/78/39 98/80/39 104/81/39
f 104/81/40 98/80/40 94/82/40 101/83/40
f 95/84/41 99/85/41 97/86/41 93/87/41
f 100/78/42 96/88/42 94/89/42 98/80/42
f 97/86/40 104/81/40 101/83/40 93/90/40
f 99/85/43 103/79/43 104/81/43 97/86/43
f 95/91/38 102/77/38 103/79/38 99/85/38
f 93/92/44 101/74/44 102/77/44 95/91/44
o Cube.002
v -0.030000 0.400000 -0.900000
v -0.030000 0.460000 -0.870000
v 0.030000 0.400000 -0.900000
v 0.030000 0.460000 -0.870000
v -0.030000 0.400000 -0.550000
v -0.030000 0.470000 -0.550000
v 0.030000 0.400000 -0.550000
v 0.030000 0.470000 -0.550000
v -0.030000 0.470000 -0.810000
v 0.030000 0.400000 -0.830000
v -0.030000 0.400000 -0.830000
v 0.030000 0.470000 -0.810000
v 0.030000 0.100000 -1.020000
v -0.030000 0.100000 -1.020000
v 0.030000 0.100000 -0.950000
v -0.030000 0.100000 -0.950000
v 0.030000 0.150000 -1.000000
v -0.030000 0.150000 -1.000000
v 0.030000 0.150000 -0.930000
v -0.030000 0.150000 -0.930000
v -0.030000 0.375000 -0.910000
v -0.030000 0.375000 -0.840000
v 0.030000 0.375000 -0.910000
v 0.030000 0.375000 -0.840000
v -0.030000 0.325000 -0.930000
v -0.030000 0.325000 -0.860000
v 0.030000 0.325000 -0.930000
v 0.030000 0.325000 -0.860000
v -0.030000 0.325000 -1.050000
v -0.030000 0.375000 -1.050000
v 0.030000 0.375000 -1.050000
v 0.030000 0.325000 -1.050000
v 0.030000 0.100000 -1.050000
v -0.030000 0.100000 -1.050000
v 0.030000 0.150000 -1.050000
v -0.030000 0.150000 -1.050000
vn -1.0000 -0.0000 -0.0000
vn -0.0000 0.4472 -0.8944
vn -0.0000 -0.0000 1.0000
vn -0.0000 1.0000 -0.0000
vn -0.0000 -1.0000 -0.0000
vn 1.0000 -0.0000 -0.0000
vn -0.0000 0.9864 -0.1644
vn -0.0000 -0.3714 0.9285
vn -0.0000 0.3714 -0.9285
vn -0.0000 -0.0000 -1.0000
vt 0.375000 0.193750
vt 0.625000 0.193750
vt 0.625000 0.250000
vt 0.375000 0.250000
vt 0.625000 0.500000
vt 0.375000 0.500000
vt 0.625000 0.125000
vt 0.375000 0.125000
vt 0.375000 0.625000
vt 0.625000 0.625000
vt 0.625000 0.556250
vt 0.875000 0.556250
vt 0.875000 0.625000
vt 0.125000 0.556250
vt 0.375000 0.556250
vt 0.125000 0.625000
vt 0.875000 0.500000
vt 0.125000 0.500000
vt 0.375000 0.500000
s 0
f 115/93/45 113/94/45 106/95/45 105/96/45
f 105/96/46 106/95/46 108/97/46 107/98/46
f 110/99/47 109/100/47 111/101/47 112/102/47
f 116/103/48 113/104/48 110/105/48 112/102/48
f 115/106/49 114/107/49 111/101/49 109/108/49
f 114/107/50 116/103/50 112/102/50 111/101/50
f 107/98/50 108/97/50 116/103/50 114/107/50
f 118/96/45 122/96/45 140/96/45 138/96/45
f 108/97/51 106/109/51 113/104/51 116/103/51
f 109/100/45 110/99/45 113/94/45 115/93/45
f 118/110/49 117/98/49 119/107/49 120/106/49
f 121/98/50 123/107/50 119/107/50 117/98/50
f 124/93/45 122/96/45 118/96/45 120/93/45
f 123/107/52 124/106/52 120/106/52 119/107/52
f 131/111/49 129/96/49 133/96/49 136/111/49
f 132/107/52 130/106/52 124/106/52 123/107/52
f 130/93/45 129/96/45 122/96/45 124/93/45
f 131/111/50 132/107/50 123/107/50 121/98/50
f 114/107/52 115/106/52 126/106/52 128/107/52
f 115/93/45 105/96/45 125/96/45 126/93/45
f 107/98/50 114/107/50 128/107/50 127/98/50
f 105/96/53 107/98/53 127/98/53 125/96/53
f 128/107/52 126/106/52 130/106/52 132/107/52
f 126/93/45 125/96/45 129/96/45 130/93/45
f 127/98/50 128/107/50 132/107/50 131/111/50
f 129/96/53 131/111/53 121/98/53 122/96/53
f 134/96/54 135/98/54 136/111/54 133/96/54
f 129/96/45 125/96/45 134/96/45 133/96/45
f 125/96/48 127/98/48 135/98/48 134/96/48
f 127/98/50 131/111/50 136/111/50 135/98/50
f 140/96/54 139/98/54 137/98/54 138/96/54
f 121/98/50 117/98/50 137/98/50 139/98/50
f 122/96/48 121/98/48 139/98/48 140/96/48
f 117/98/49 118/110/49 138/110/49 137/98/49
o Cube.003
v -0.030000 0.070000 -1.050000
v -0.030000 0.400000 -1.050000
v -0.030000 0.070000 -1.100000
v -0.030000 0.400000 -1.100000
v 0.030000 0.070000 -1.050000
v 0.030000 0.400000 -1.050000
v 0.030000 0.070000 -1.100000
v 0.030000 0.400000 -1.100000
v -0.050000 0.320000 -1.050000
v -0.050000 0.320000 -1.100000
v 0.050000 0.320000 -1.100000
v 0.050000 0.320000 -1.050000
v -0.050000 0.160000 -1.100000
v 0.050000 0.160000 -1.100000
v 0.050000 0.160000 -1.050000
v -0.050000 0.160000 -1.050000
vn -0.9701 0.2425 -0.0000
vn -0.0000 -0.0000 -1.0000
vn 0.9701 0.2425 -0.0000
vn -0.0000 -0.0000 1.0000
vn -0.0000 -1.0000 -0.0000
vn -0.0000 1.0000 -0.0000
vn 1.0000 -0.0000 -0.0000
vn -1.0000 -0.0000 -0.0000
vn -0.9762 -0.2169 -0.0000
vn 0.9762 -0.2169 -0.0000
vt 0.562500 0.000000
vt 0.625000 0.000000
vt 0.625000 0.250000
vt 0.562500 0.250000
vt 0.625000 0.500000
vt 0.562500 0.500000
vt 0.625000 0.750000
vt 0.562500 0.750000
vt 0.625000 1.000000
vt 0.562500 1.000000
vt 0.125000 0.500000
vt 0.375000 0.500000
vt 0.375000 0.750000
vt 0.125000 0.750000
vt 0.875000 0.500000
vt 0.875000 0.750000
vt 0.440625 0.750000
vt 0.440625 1.000000
vt 0.440625 0.500000
vt 0.440625 0.250000
vt 0.440625 0.000000
vt 0.375000 0.000000
vt 0.375000 0.250000
vt 0.375000 1.000000
s 0
f 149/112/55 142/113/55 144/114/55 150/115/55
f 150/115/56 144/114/56 148/116/56 151/117/56
f 151/117/57 148/116/57 146/118/57 152/119/57
f 152/119/58 146/118/58 142/120/58 149/121/58
f 143/122/59 147/123/59 145/124/59 141/125/59
f 148/116/60 144/126/60 142/127/60 146/118/60
f 155/128/58 152/119/58 149/121/58 156/129/58
f 154/130/61 151/117/61 152/119/61 155/128/61
f 153/131/56 150/115/56 151/117/56 154/130/56
f 156/132/62 149/112/62 150/115/62 153/131/62
f 141/133/63 156/132/63 153/131/63 143/134/63
f 143/134/56 153/131/56 154/130/56 147/123/56
f 147/123/64 154/130/64 155/128/64 145/124/64
f 145/124/58 155/128/58 156/129/58 141/135/58
o Cube.004
v -0.030000 -0.300000 0.030000
v -0.030000 0.300000 0.210000
v -0.030000 -0.280000 -0.060000
v -0.030000 0.320000 0.120000
v 0.030000 -0.300000 0.030000
v 0.030000 0.300000 0.210000
v 0.030000 -0.280000 -0.060000
v 0.030000 0.320000 0.120000
vn -1.0000 -0.0000 -0.0000
vn -0.0000 0.2873 -0.9578
vn 1.0000 -0.0000 -0.0000
vn -0.0000 -0.2873 0.9578
vn -0.0000 0.9762 0.2169
vn -0.0000 -0.9762 -0.2169
vt 0.375000 0.000000
vt 0.625000 0.000000
vt 0.625000 0.250000
vt 0.375000 0.250000
vt 0.625000 0.500000
vt 0.375000 0.500000
vt 0.625000 0.750000
vt 0.375000 0.750000
vt 0.625000 1.000000
vt 0.375000 1.000000
vt 0.875000 0.500000
vt 0.875000 0.750000
s 0
f 157/136/65 158/137/65 160/138/65 159/139/65
f 159/139/66 160/138/66 164/140/66 163/141/66
f 163/141/67 164/140/67 162/142/67 161/143/67
f 161/143/68 162/142/68 158/144/68 157/145/68
f 164/140/69 160/146/69 158/147/69 162/142/69
f 161/143/70 157/145/70 159/139/70 163/141/70
